<?xml version="1.0" encoding="UTF-8" standalone="no"?>
<svg
   width="100.5mm"
   height="100.5mm"
   viewBox="0 0 100.5 100.5"
   version="1.1"
   id="svg8"
   inkscape:version="1.1 (c68e22c387, 2021-05-23)"
   sodipodi:docname="Logo_pionyrka.svg"
   xmlns:inkscape="http://www.inkscape.org/namespaces/inkscape"
   xmlns:sodipodi="http://sodipodi.sourceforge.net/DTD/sodipodi-0.dtd"
   xmlns="http://www.w3.org/2000/svg"
   xmlns:svg="http://www.w3.org/2000/svg"
   xmlns:rdf="http://www.w3.org/1999/02/22-rdf-syntax-ns#"
   xmlns:cc="http://creativecommons.org/ns#"
   xmlns:dc="http://purl.org/dc/elements/1.1/">
  <defs
     id="defs2">
    <rect
       x="98.009026"
       y="100.65792"
       width="30.113728"
       height="35.550926"
       id="rect847" />
  </defs>
  <sodipodi:namedview
     id="base"
     pagecolor="#ffffff"
     bordercolor="#666666"
     borderopacity="1.0"
     inkscape:pageopacity="0.0"
     inkscape:pageshadow="2"
     inkscape:zoom="0.90955805"
     inkscape:cx="228.13277"
     inkscape:cy="152.27175"
     inkscape:document-units="mm"
     inkscape:current-layer="layer1"
     inkscape:document-rotation="0"
     showgrid="false"
     inkscape:window-width="1920"
     inkscape:window-height="1001"
     inkscape:window-x="-9"
     inkscape:window-y="-9"
     inkscape:window-maximized="1"
     inkscape:pagecheckerboard="0"
     width="101.5mm"
     height="101.5mm" />
  <metadata
     id="metadata5">
    <rdf:RDF>
      <cc:Work
         rdf:about="">
        <dc:format>image/svg+xml</dc:format>
        <dc:type
           rdf:resource="http://purl.org/dc/dcmitype/StillImage" />
      </cc:Work>
    </rdf:RDF>
  </metadata>
  <g
     inkscape:label="Vrstva 1"
     inkscape:groupmode="layer"
     id="layer1"
     transform="translate(-39.893124,-23.094095)">
    <g
       id="g180">
      <rect
         style="fill:#55ddff;fill-opacity:0.992157;stroke:#000000;stroke-width:0.5;stroke-miterlimit:4;stroke-dasharray:none;stroke-opacity:1"
         id="rect104"
         width="100"
         height="100"
         x="40.143124"
         y="23.344095"
         ry="8" />
      <g
         id="g2034"
         transform="translate(24.024936,15.99907)">
        <path
           sodipodi:nodetypes="csssscsssc"
           id="path835"
           d="m 22.210074,71.220497 c 0,0 -5.662574,22.015969 -0.118643,26.936789 5.978372,5.306434 33.226921,6.370824 37.111839,6.547794 1.155852,0.0526 17.081245,-1.12306 25.730011,-1.0306 8.244779,0.0881 23.343039,-3.37388 26.902469,-9.36376 2.26631,-3.813796 -1.37573,-26.993853 -1.37573,-26.993853 0,0 -14.584266,-5.68196 -22.306466,-3.06713 -5.88444,1.99254 -11.99819,8.72403 -18.123997,9.75907 -7.594902,1.28327 -17.566652,-6.37656 -25.234188,-7.11018 -8.656105,-0.8282 -22.585295,4.32187 -22.585295,4.32187 z"
           style="fill:#ffffff;stroke:#000000;stroke-width:0.264583px;stroke-linecap:butt;stroke-linejoin:miter;stroke-opacity:1" />
        <g
           id="g869"
           transform="translate(-25.051746,-75.723333)">
          <path
             style="fill:#ddff55;stroke:#000000;stroke-width:0.264583px;stroke-linecap:butt;stroke-linejoin:miter;stroke-opacity:1"
             d="m 61.569327,143.07505 -3.990766,-34.60987 c 0,0 0.432442,-8.584061 3.624799,-8.922584 2.794246,-0.296307 4.740124,6.970774 4.740124,6.970774 l 4.234743,36.14344 c 0,0 -2.728856,-0.20891 -4.409011,-0.0871 -1.542841,0.11182 -4.199889,0.50537 -4.199889,0.50537 z"
             id="path839"
             sodipodi:nodetypes="ccsccsc" />
          <path
             style="fill:#55ddff;fill-opacity:0.992157;stroke:#000000;stroke-width:0.264583px;stroke-linecap:butt;stroke-linejoin:miter;stroke-opacity:1"
             d="m 59.704647,107.2453 4.705268,-0.83649 c 0,0 -0.964866,-4.69451 -2.7186,-4.53101 -1.899551,0.1771 -1.986668,5.3675 -1.986668,5.3675 z"
             id="path851"
             sodipodi:nodetypes="ccsc" />
        </g>
        <g
           id="g873"
           transform="translate(-25.051746,-75.723333)">
          <path
             style="fill:#ddff55;fill-opacity:1;stroke:#000000;stroke-width:0.265;stroke-linecap:butt;stroke-linejoin:miter;stroke-miterlimit:4;stroke-dasharray:none;stroke-opacity:1"
             d="m 75.876832,144.15552 6.378254,-31.92612 c 0,0 3.633498,-9.67577 7.249602,-8.64376 3.159887,0.90181 1.394153,9.75908 1.394153,9.75908 l -7.354162,33.98251 c 0,0 -2.464649,-1.07022 -4.443866,-1.84726 -1.684823,-0.66145 -3.223981,-1.32445 -3.223981,-1.32445 z"
             id="path841"
             sodipodi:nodetypes="ccsccsc" />
          <path
             style="fill:#55ddff;fill-opacity:0.992157;stroke:#000000;stroke-width:0.264583px;stroke-linecap:butt;stroke-linejoin:miter;stroke-opacity:1"
             d="m 85.113102,109.85934 c 0.906201,0.20912 4.879539,1.25473 4.879539,1.25473 0,0 0.995258,-4.93237 -0.766784,-5.5069 -1.874764,-0.61129 -4.112755,4.25217 -4.112755,4.25217 z"
             id="path853"
             sodipodi:nodetypes="ccsc" />
        </g>
        <g
           id="g906"
           transform="translate(-25.051746,-75.723333)">
          <path
             style="fill:#ac9393;stroke:#000000;stroke-width:0.264583px;stroke-linecap:butt;stroke-linejoin:miter;stroke-opacity:1"
             d="m 111.25349,140.67014 1.86109,-11.86638 -3.4466,-0.0289 8.96752,-8.20544 9.18221,8.04356 -4.13874,-0.0289 1.93431,11.52834 c 0,0 -4.95168,-0.90221 -7.84212,-0.87135 -3.11378,0.0333 -6.51767,1.42903 -6.51767,1.42903 z"
             id="path875"
             sodipodi:nodetypes="cccccccsc" />
          <path
             style="fill:#ac9393;fill-opacity:1;stroke:#000000;stroke-width:0.264583px;stroke-linecap:butt;stroke-linejoin:miter;stroke-opacity:1"
             d="m 122.8182,124.18502 0.0637,-3.3733 2.31667,-0.0493 0.4232,5.91216 z"
             id="path877"
             sodipodi:nodetypes="ccccc" />
          <g
             id="g874">
            <path
               style="fill:#55ddff;fill-opacity:0.992157;stroke:#000000;stroke-width:0.264583px;stroke-linecap:butt;stroke-linejoin:miter;stroke-opacity:1"
               d="m 114.02974,131.19237 -0.50907,4.21794 9.81762,-0.14545 -0.50906,-4.29065 z"
               id="path859" />
            <path
               style="fill:none;stroke:#000000;stroke-width:0.264583px;stroke-linecap:butt;stroke-linejoin:miter;stroke-opacity:1"
               d="m 118.53857,131.11965 0.0727,4.14521 z"
               id="path861" />
          </g>
          <path
             id="path863"
             d="m 113.11458,128.80376 10.56439,-0.21968 z"
             style="fill:none;stroke:#000000;stroke-width:0.264583px;stroke-linecap:butt;stroke-linejoin:miter;stroke-opacity:1" />
          <path
             id="path865"
             d="m 109.66798,128.77486 8.96752,-8.20544 9.18221,8.04356 z"
             style="fill:#ff2a2a;stroke:#000000;stroke-width:0.264583px;stroke-linecap:butt;stroke-linejoin:miter;stroke-opacity:1" />
          <g
             style="fill:#c8b7b7"
             id="g891">
            <ellipse
               style="opacity:0.99;fill:#c8b7b7;fill-opacity:0.992157;stroke:#000000;stroke-width:0.264999"
               id="path876"
               cx="54.536701"
               cy="163.24927"
               rx="0.98176116"
               ry="0.72723043"
               transform="rotate(-27.614128)" />
            <ellipse
               style="opacity:0.99;fill:#c8b7b7;fill-opacity:0.992157;stroke:#000000;stroke-width:0.270207"
               id="path878"
               cx="127.91283"
               cy="81.276924"
               rx="1.1908538"
               ry="1.1635687"
               transform="matrix(0.96182071,0.27368034,0,1,0,0)" />
            <ellipse
               style="opacity:0.99;fill:#c8b7b7;fill-opacity:0.992157;stroke:#000000;stroke-width:0.264999"
               id="path880"
               cx="85.974663"
               cy="144.81178"
               rx="1.8907993"
               ry="0.94539958"
               transform="rotate(-16.953833)" />
            <ellipse
               style="opacity:0.99;fill:#c8b7b7;fill-opacity:0.992157;stroke:#000000;stroke-width:0.264999"
               id="path882"
               cx="85.891792"
               cy="145.27876"
               rx="2.3998604"
               ry="1.8180761"
               transform="rotate(-18.767427)" />
            <ellipse
               style="opacity:0.99;fill:#c8b7b7;fill-opacity:0.992157;stroke:#000000;stroke-width:0.264999"
               id="path884"
               cx="146.86742"
               cy="71.025795"
               rx="2.5634873"
               ry="1.3271956"
               transform="rotate(14.870922)" />
          </g>
        </g>
      </g>
    </g>
  </g>
</svg>
